<?xml version="1.0" standalone="no"?>
<!DOCTYPE svg PUBLIC "-//W3C//DTD SVG 20010904//EN"
 "http://www.w3.org/TR/2001/REC-SVG-20010904/DTD/svg10.dtd">
<svg version="1.0" xmlns="http://www.w3.org/2000/svg"
 width="320.000000pt" height="320.000000pt" viewBox="0 0 320.000000 320.000000"
 preserveAspectRatio="xMidYMid meet">
<metadata>
Created by potrace 1.11, written by Peter Selinger 2001-2013
</metadata>
<g transform="translate(0.000000,320.000000) scale(0.100000,-0.100000)"
fill="#000000" stroke="none">
<path d="M1455 3134 c-321 -46 -555 -138 -779 -306 -308 -231 -520 -576 -592
-963 -26 -138 -26 -392 0 -530 104 -561 501 -1021 1032 -1194 180 -59 290 -76
484 -76 193 0 304 17 483 76 532 173 928 632 1033 1194 26 138 26 392 0 530
-52 279 -189 561 -367 757 l-48 53 -1 -227 0 -228 -175 0 -175 0 0 -910 0
-910 -295 0 -295 0 0 910 0 910 -180 0 -180 0 0 230 0 230 647 0 647 0 -35 36
c-62 65 -239 191 -348 248 -123 64 -281 119 -419 147 -93 19 -366 33 -437 23z
m-185 -1594 l0 -1140 -295 0 -295 0 0 1140 0 1140 295 0 295 0 0 -1140z"/>
</g>
</svg>
